<?xml version="1.0" encoding="utf-8"?>
<!-- Generator: Adobe Illustrator 24.2.3, SVG Export Plug-In . SVG Version: 6.00 Build 0)  -->
<svg version="1.1" id="Layer_1" xmlns="http://www.w3.org/2000/svg" xmlns:xlink="http://www.w3.org/1999/xlink" x="0px" y="0px"
	 viewBox="0 0 1570.1 1247.4" style="enable-background:new 0 0 1570.1 1247.4;" xml:space="preserve">
<style type="text/css">
	.st0{fill:#055651;}
</style>
<g>
	<path class="st0" d="M1184.8,819c-21.6,44.2-51.2,84.8-88.9,121.9c-86.2,84.5-190.8,125.6-300.6,127.3
		c-64.8-0.4-117.3-9.8-167.9-29c-2.2-0.8-5.2-1.2-6.5-2.8c-2.5-3.1-5.9-7.3-5.4-10.5c0.9-5.5,5.8-6.6,11.3-4.7
		c17.3,5.8,34.5,12.2,52.1,16.8c198.7,51.1,398.4-46.1,486.6-219H1145c-0.7,1.3-1.5,2.7-2.2,4c-1.6,2.9-2.7,6.7-5.2,8.2
		c-3,1.9-7.9,3.2-10.8,2c-2.1-0.9-2.8-6.4-3-9.8c-0.1-1.4,1-2.9,2-4.4h-69.4c-24.3,33.5-55.7,62.7-94.3,87.8c-2,1.3-4.3,3.4-6.3,3.1
		c-3.2-0.4-7.6-1.5-8.9-3.8s-0.2-6.7,1.2-9.5c1-2.1,4.2-3.2,6.5-4.6c32.2-21.4,59.1-45.7,80.8-73h-37
		C891.1,936.8,708.6,945.3,590.7,838c-6.6-6.1-13-12.4-19.1-19.1h-36.3c62.8,77.5,144.1,118.5,244.3,122c1.8,0.1,4.2-0.7,5.3,0.2
		c3.1,2.5,5.7,5.7,8.5,8.6c-2.8,2.6-5.2,6.4-8.5,7.4c-4.4,1.3-9.5,0.3-14.3,0.3c-102.7-7.1-186.6-49.9-250.5-131
		c-1.5-1.9-3.7-3.9-3.8-5.9c0-0.5,0-1-0.1-1.6h-71.2c4.1,7.7,8.6,15.1,13.5,22.3c77.6,111.9,184.4,171,321,175.2
		c2.4,0.1,5.5-0.6,7,0.6c2.8,2.1,6.4,5.5,6.3,8.3c-0.1,2.6-4.2,6.7-7.1,7.2c-5.8,1.2-11.9,0.3-17.9,0.3
		c-153.4-12-268.1-82.3-342-214h-21.2c28.5,55.5,68.8,104.1,118,142.4c5.1,4,12.8,7.8,7,15.5c-6.2,8.3-12.3,1.4-17.4-2.7
		c-55.6-44.2-97.8-96-126.6-155.1H211.5c56.8,244.8,292.2,428.3,574,428.3s517.3-183.5,574.1-428.3H1184.8z M998.6,1097.2
		c83.2-38,151.9-93.7,206.1-167.4c2.4-3.2,7.4-5.2,11.5-5.9c2.7-0.5,6,2.3,9,3.6l-2.8,3.8c-1.6,2.8-2.8,5.8-4.7,8.4
		c-55.8,75.9-126.5,133.4-212.1,172.6c-5.6,2.6-11.3,4.2-14.3-3.1C988.5,1102.5,993.3,1099.6,998.6,1097.2z M487.4,1129.5
		c-20.5-13.5-41.4-26.5-60.8-41.4c-53.3-40.7-97.9-89.7-134.4-145.9c-1.6-2.5-4.2-5.1-4.3-7.7c-0.1-3.3,1-7.9,3.4-9.7
		c1.9-1.5,6.6-0.3,9.5,0.9c1.9,0.8,2.9,3.7,4.2,5.7c48.8,75.4,111.6,136.3,188.5,182.7c3.8,2.3,6.7,5.8,8.9,7.8
		C502,1131.5,494.8,1134.4,487.4,1129.5L487.4,1129.5z M762.7,1159.7c-133.9-7.5-249.8-56.4-347.4-148.5
		c-11.1-10.5-21.2-21.9-31.8-33c-4-4.2-7.1-9.1-1.9-14c5.6-5.2,10.2-1.7,14.4,3c56.2,63.4,123.9,110.5,202.8,141.3
		c58.1,22.5,118.4,33.7,180.7,34.5c1.8,0,4.1-0.6,5.3,0.2c3.1,2.1,5.8,4.9,8.6,7.5c-2.8,3-5.2,7.9-8.4,8.5
		C777.8,1160.6,770.2,1159.7,762.7,1159.7L762.7,1159.7z M1266,959.9c-98,136.9-230.2,218.5-396.7,244.7c-22.1,3.5-44.6,4.6-67,6.8
		l-0.1-0.8c-4.5,0-9-0.1-13.5,0c-6,0.2-11.4-0.9-11.5-8.1s5.1-8.2,11.2-8.5c18.2-0.8,36.6-1.1,54.7-3.1
		c163.4-18.4,295.5-92.7,396.2-222.8c16.6-21.5,29.9-45.5,44.9-68.2c1.9-2.9,4.2-6.1,7.1-7.4c2-1,7.2,0.3,7.8,1.8
		c1.3,3.5,2.1,8.5,0.5,11.4C1288.8,924,1278.4,942.7,1266,959.9z M785.5,0.1c-281.8,0-517.3,183.5-574,428.3h142.6
		C407.8,255,580.6,128,785.5,128s377.7,127,431.4,300.4h142.6C1302.8,183.6,1067.3,0.1,785.5,0.1z"/>
	<rect x="0.5" y="471" class="st0" width="1569.2" height="50"/>
	<rect x="0.5" y="724" class="st0" width="1569.2" height="50"/>
	<path class="st0" d="M208.7,593.3v-2.8c0-10.7-1.8-18.2-5.4-22.3s-10.4-6.2-20.3-6.2h-71.6c-10.1,0-16.9,2.1-20.4,6.3
		c-3.5,4.2-5.3,12-5.3,23.4v66.1c0,11.5,1.8,19.3,5.3,23.4c3.5,4.2,10.3,6.2,20.4,6.2h71.6c10.1,0,16.9-2.1,20.4-6.2
		c3.5-4.1,5.3-12,5.3-23.4v-43.2h-63v21.4h39.5v27.9h-75.4v-79.4h75.5v14L208.7,593.3z"/>
	<path class="st0" d="M318.4,562h-23.3l-58.8,125.4h24.1l12.1-27.4h65.8l12.5,27.4H378L318.4,562z M282.8,637.3l23.1-51l22.4,51
		H282.8z"/>
	<path class="st0" d="M486.6,640.1h13.6c8.3,0,14.2-1.9,17.9-5.8s5.5-10,5.5-18.5v-29.4c0-8.5-1.8-14.7-5.5-18.6s-9.7-5.8-17.9-5.7
		h-88.8v125.4h23.8v-47.3H458l41.9,47.3h34.7L486.6,640.1z M435.1,618.6v-34.9h54.3c4.2,0,7,0.7,8.6,2.2s2.3,4,2.3,7.7v15.1
		c0,3.7-0.8,6.3-2.3,7.8c-1.5,1.5-4.4,2.2-8.6,2.2H435.1z"/>
	<path class="st0" d="M693.6,593.3v-2.8c0-10.7-1.8-18.2-5.4-22.3s-10.4-6.2-20.3-6.2h-71.6c-10.1,0-16.9,2.1-20.4,6.3
		c-3.5,4.2-5.3,12-5.3,23.4v66.1c0,11.5,1.8,19.3,5.3,23.4c3.5,4.2,10.3,6.2,20.4,6.2h71.6c10.1,0,16.9-2.1,20.4-6.2
		c3.5-4.1,5.3-12,5.3-23.4v-43.2h-63v21.4h39.5v27.9h-75.4v-79.4h75.5v14L693.6,593.3z"/>
	<path class="st0" d="M803.4,562h-23.3l-58.8,125.4h24.1l12.1-27.4h65.8l12.5,27.4h27.1L803.4,562z M767.8,637.3l23.1-51l22.4,51
		H767.8z"/>
	<path class="st0" d="M996.6,562v65.8c0,1.6,0.1,3.8,0.2,6.8s0.4,7.9,0.8,15c-1.6-2.3-3.3-4.6-5.2-6.7c-1.9-2.2-4.1-4.5-6.6-6.9
		L912.7,562h-16.5v125.4h21.7v-67.8c0-2.5-0.1-5.5-0.2-9c-0.2-3.4-0.4-7.1-0.7-11c1.2,1.7,2.5,3.3,3.8,4.9s3,3.4,4.8,5.3l76.2,77.5
		h16.5V562H996.6z"/>
	<path class="st0" d="M1047.7,562v22.4h47.7v103h24.2v-103h47.8V562H1047.7z"/>
	<path class="st0" d="M1290,562v101.8h-68.9V562H1197v95.8c0,11.5,1.8,19.3,5.3,23.4c3.6,4.2,10.4,6.2,20.4,6.2h65.6
		c10.1,0,16.9-2.1,20.4-6.2c3.5-4.1,5.3-12,5.3-23.4V562H1290z"/>
	<path class="st0" d="M1425,562h-23.3L1343,687.4h24.1l12.1-27.4h65.8l12.5,27.4h27.1L1425,562z M1389.4,637.3l23.1-51l22.4,51
		H1389.4z"/>
</g>
</svg>
